<svg width="80" height="84" viewBox="0 0 80 84" fill="none" xmlns="http://www.w3.org/2000/svg">
<path d="M68.65 38.476C68.5094 37.8454 68.2228 37.2609 67.8156 36.7744C67.4084 36.2879 66.8932 35.9144 66.3156 35.6869L49.3031 28.9899L53.6781 6.02114C53.8381 5.18109 53.7327 4.30919 53.3781 3.53769C53.0234 2.76619 52.4388 2.13719 51.7129 1.74608C50.987 1.35497 50.1595 1.2231 49.3558 1.37047C48.5521 1.51785 47.816 1.93642 47.2594 2.5627L12.2594 41.9377C11.8383 42.411 11.5349 42.986 11.376 43.6118C11.2172 44.2376 11.2078 44.8949 11.3487 45.5254C11.4897 46.1559 11.7765 46.7402 12.184 47.2265C12.5914 47.7128 13.1067 48.086 13.6844 48.3132L30.6969 55.0102L26.3219 77.979C26.1619 78.819 26.2673 79.6909 26.6219 80.4624C26.9766 81.2339 27.5612 81.8629 28.2871 82.254C29.0129 82.6451 29.8405 82.777 30.6442 82.6296C31.4479 82.4822 32.1839 82.0637 32.7406 81.4374L67.7406 42.0624C68.1613 41.5891 68.4644 41.0143 68.623 40.3887C68.7816 39.7632 68.7909 39.1062 68.65 38.476ZM36.2656 65.9302L38.6781 53.2711C38.8526 52.3544 38.7107 51.4023 38.2779 50.5853C37.8451 49.7683 37.1495 49.1397 36.3156 48.8119L21.5625 43.0074L43.7281 18.0699L41.3156 30.729C41.1411 31.6457 41.283 32.5978 41.7158 33.4148C42.1487 34.2318 42.8443 34.8604 43.6781 35.1882L58.4375 40.9927L36.2656 65.9302Z" fill="#7F56D9"/>
</svg>
